<?xml version="1.0" encoding="UTF-8"?>
<svg width="587px" height="124px" viewBox="0 0 587 124" version="1.1" xmlns="http://www.w3.org/2000/svg" xmlns:xlink="http://www.w3.org/1999/xlink">
    <!-- Generator: Sketch 42 (36781) - http://www.bohemiancoding.com/sketch -->
    <title>Doppler</title>
    <desc>Created with Sketch.</desc>
    <defs></defs>
    <g id="Page-1" stroke="none" stroke-width="1" fill="none" fill-rule="evenodd">
        <g id="Doppler" fill="#000000">
            <g id="Group" transform="translate(0.000000, 3.000000)">
                <path d="M0.797027523,93.7045872 L0.797027523,0.387743119 L45.1289908,0.387743119 C80.9306055,0.387743119 96.6988257,20.679633 96.6988257,48.0801468 C96.6988257,65.5285872 86.7467523,93.7045872 45.2582385,93.7045872 L0.797027523,93.7045872 Z M21.735156,15.6389725 L21.735156,78.4533578 L42.414789,78.4533578 C69.0398165,78.4533578 74.985211,58.6784587 74.985211,46.5291743 C74.985211,24.9448073 60.6387156,15.6389725 42.2855413,15.6389725 L21.735156,15.6389725 Z M152.404587,26.3665321 C185.362752,26.3665321 194.668587,43.4272294 194.668587,61.2634128 C194.668587,79.0995963 185.362752,96.1602936 152.404587,96.1602936 C119.446422,96.1602936 110.140587,79.0995963 110.140587,61.2634128 C110.140587,43.4272294 119.446422,26.3665321 152.404587,26.3665321 Z M152.404587,38.7743119 C137.541101,38.7743119 130.561725,48.5971376 130.561725,61.2634128 C130.561725,73.9296881 137.541101,83.7525138 152.404587,83.7525138 C167.268073,83.7525138 174.24745,73.9296881 174.24745,61.2634128 C174.24745,48.5971376 167.268073,38.7743119 152.404587,38.7743119 Z M209.015083,118.520147 L209.015083,44.0734679 C209.015083,38.7743119 208.756587,32.4411743 208.498092,28.8222385 L227.368257,28.8222385 C227.626752,31.7949358 227.885248,34.767633 227.885248,37.7403303 L228.143743,37.7403303 C233.701394,29.3392294 244.299706,26.3665321 254.639523,26.3665321 C278.679596,26.3665321 290.441138,42.3932477 290.441138,60.746422 C290.441138,89.827156 268.081284,96.1602936 255.415009,96.1602936 C245.721431,96.1602936 235.381615,93.5753394 228.919229,84.7864954 L228.660734,84.7864954 L228.660734,118.520147 L209.015083,118.520147 Z M228.660734,61.2634128 C228.660734,73.541945 236.932587,83.7525138 249.340367,83.7525138 C261.748147,83.7525138 270.02,73.541945 270.02,61.2634128 C270.02,48.9848807 261.748147,38.7743119 249.340367,38.7743119 C236.932587,38.7743119 228.660734,48.9848807 228.660734,61.2634128 Z M304.787633,118.520147 L304.787633,44.0734679 C304.787633,38.7743119 304.529138,32.4411743 304.270642,28.8222385 L323.140807,28.8222385 C323.399303,31.7949358 323.657798,34.767633 323.657798,37.7403303 L323.916294,37.7403303 C329.473945,29.3392294 340.072257,26.3665321 350.412073,26.3665321 C374.452147,26.3665321 386.213688,42.3932477 386.213688,60.746422 C386.213688,89.827156 363.853835,96.1602936 351.18756,96.1602936 C341.493982,96.1602936 331.154165,93.5753394 324.69178,84.7864954 L324.433284,84.7864954 L324.433284,118.520147 L304.787633,118.520147 Z M324.433284,61.2634128 C324.433284,73.541945 332.705138,83.7525138 345.112917,83.7525138 C357.520697,83.7525138 365.79255,73.541945 365.79255,61.2634128 C365.79255,48.9848807 357.520697,38.7743119 345.112917,38.7743119 C332.705138,38.7743119 324.433284,48.9848807 324.433284,61.2634128 Z M401.077174,0.387743119 L401.077174,93.7045872 L420.722826,93.7045872 L420.722826,0.387743119 L401.077174,0.387743119 Z M515.849138,65.6578349 L454.197982,65.6578349 C454.197982,79.228844 465.442532,84.528 476.557835,84.528 C482.373982,84.528 491.033578,82.4600367 493.101541,76.2561468 L514.03967,76.2561468 C512.100954,92.4121101 489.353358,96.1602936 476.040844,96.1602936 C443.082679,96.1602936 433.776844,79.0995963 433.776844,61.2634128 C433.776844,43.4272294 443.082679,26.3665321 476.040844,26.3665321 C494.781761,26.3665321 515.849138,34.6383853 515.849138,61.651156 L515.849138,65.6578349 Z M454.197982,54.0255413 L495.428,54.0255413 C494.264771,42.264 485.475927,37.9988257 474.748367,37.9988257 C465.054789,37.9988257 455.361211,42.9102385 454.197982,54.0255413 Z M533.685321,93.7045872 L553.330972,93.7045872 L553.330972,67.4673028 C553.330972,49.6311193 561.861321,42.7809908 577.758789,42.7809908 C579.697505,42.7809908 581.377725,42.9102385 582.79945,43.0394862 C584.350422,43.1687339 585.772147,43.2979817 586.935376,43.5564771 L586.935376,28.8222385 C582.282459,27.9175046 578.405028,27.5297615 574.269101,27.5297615 C559.147119,27.5297615 554.752697,36.3186055 552.813982,40.7130275 L552.555486,40.7130275 C552.555486,36.7063486 552.296991,32.8289174 552.038495,28.8222385 L533.16833,28.8222385 C533.426826,33.2166606 533.685321,38.9035596 533.685321,45.1074495 L533.685321,93.7045872 Z" id="Doppler"></path>
                <path d="M29.4253945,0.387743119 L53.7455046,0.387743119 C89.5471193,0.387743119 105.315339,20.679633 105.315339,48.0801468 C105.315339,65.5285872 95.3632661,93.7045872 53.8747523,93.7045872 L29.4900183,93.7045872 L49.5664954,93.7045872 C91.0550092,93.7045872 101.007083,65.5285872 101.007083,48.0801468 C101.007083,20.679633 85.2388624,0.387743119 49.4372477,0.387743119 L29.4253945,0.387743119 Z" id="Combined-Shape"></path>
            </g>
        </g>
    </g>
</svg>